<svg width="141" height="31" viewBox="0 0 141 31" fill="none" xmlns="http://www.w3.org/2000/svg">
<path fill-rule="evenodd" clip-rule="evenodd" d="M18 0H13V5H18V0ZM18 31V26H13V31H18ZM6.30762 28.2279L2.77197 24.6924L9.46436 18H0V13H9.46436L2.77222 6.30762L6.30762 2.77209L15.5 11.9644L24.6924 2.77203L28.228 6.30762L21.5356 13H31V18H21.5356L28.228 24.6924L24.6924 28.2279L15.5 19.0355L6.30762 28.2279ZM45.146 28.468C46.9192 29.1266 48.832 29.456 50.884 29.456C53.2146 29.456 55.3047 29.0507 57.1541 28.24C59.0286 27.4293 60.5994 26.2513 61.866 24.706L57.9138 21.058C57.002 22.1219 55.9885 22.92 54.874 23.452C53.7593 23.9586 52.5432 24.212 51.2258 24.212C49.9846 24.212 48.8445 24.0093 47.8059 23.6039C46.7673 23.1986 45.8679 22.616 45.1079 21.856C44.3479 21.0959 43.7527 20.1967 43.322 19.158C42.9165 18.1193 42.7139 16.9666 42.7139 15.7C42.7139 14.4333 42.9165 13.2806 43.322 12.2419C43.7527 11.2033 44.3479 10.304 45.1079 9.54395C45.8679 8.784 46.7673 8.20129 47.8059 7.79596C48.8445 7.39062 49.9846 7.18799 51.2258 7.18799C52.5432 7.18799 53.7593 7.45398 54.874 7.98596C55.9885 8.49261 57.002 9.26532 57.9138 10.304L61.866 6.65594C60.5994 5.11066 59.0286 3.94531 57.1541 3.15997C55.3047 2.3493 53.2273 1.94397 50.9219 1.94397C48.8445 1.94397 46.9319 2.28595 45.1838 2.96997C43.436 3.62866 41.9033 4.57861 40.5859 5.81995C39.2939 7.06128 38.2805 8.51794 37.5459 10.1899C36.8367 11.862 36.4819 13.6986 36.4819 15.7C36.4819 17.7013 36.8367 19.538 37.5459 21.21C38.2805 22.882 39.2939 24.3386 40.5859 25.58C41.8779 26.8213 43.3979 27.784 45.146 28.468ZM79.9807 2.39996H73.9006L62.0447 29H68.3525L70.7229 23.3H83.0535L85.4146 29H91.8748L79.9807 2.39996ZM81.1174 18.626L76.9004 8.44562L72.6667 18.626H81.1174ZM94.6345 2.39996H100.79V23.9839H114.128V29H94.6345V2.39996ZM124.115 28.468C125.888 29.1266 127.801 29.456 129.853 29.456C132.183 29.456 134.273 29.0507 136.123 28.24C137.997 27.4293 139.568 26.2513 140.835 24.706L136.883 21.058C135.971 22.1219 134.957 22.92 133.843 23.452C132.728 23.9586 131.512 24.212 130.195 24.212C128.953 24.212 127.813 24.0093 126.775 23.6039C125.736 23.1986 124.837 22.616 124.077 21.856C123.317 21.0959 122.721 20.1967 122.291 19.158C121.885 18.1193 121.683 16.9666 121.683 15.7C121.683 14.4333 121.885 13.2806 122.291 12.2419C122.721 11.2033 123.317 10.304 124.077 9.54395C124.837 8.784 125.736 8.20129 126.775 7.79596C127.813 7.39062 128.953 7.18799 130.195 7.18799C131.512 7.18799 132.728 7.45398 133.843 7.98596C134.957 8.49261 135.971 9.26532 136.883 10.304L140.835 6.65594C139.568 5.11066 137.997 3.94531 136.123 3.15997C134.273 2.3493 132.196 1.94397 129.891 1.94397C127.813 1.94397 125.901 2.28595 124.153 2.96997C122.405 3.62866 120.872 4.57861 119.555 5.81995C118.263 7.06128 117.249 8.51794 116.515 10.1899C115.805 11.862 115.451 13.6986 115.451 15.7C115.451 17.7013 115.805 19.538 116.515 21.21C117.249 22.882 118.263 24.3386 119.555 25.58C120.847 26.8213 122.367 27.784 124.115 28.468Z" fill="black"/>
</svg>
